<svg id="Pakan_Logo_TYPES-01" data-name="Pakan Logo_TYPES-01" xmlns="http://www.w3.org/2000/svg" width="55" height="55" viewBox="0 0 55 55">
  <defs>
    <style>
      .cls-1 {
        fill: #0054a6;
      }

      .cls-2 {
        fill: #fff;
      }

      .cls-3 {
        fill: #6d6e71;
      }

      .cls-4 {
        fill: #f7941e;
        fill-rule: evenodd;
      }
    </style>
  </defs>
  <circle id="Ellipse_185" data-name="Ellipse 185" class="cls-1" cx="27.5" cy="27.5" r="27.5"/>
  <ellipse id="Ellipse_186" data-name="Ellipse 186" class="cls-2" cx="23.831" cy="23.83" rx="23.831" ry="23.83" transform="translate(3.611 3.606)"/>
  <g id="Group_833" data-name="Group 833" transform="translate(8.535 17.317)">
    <g id="Group_832" data-name="Group 832">
      <g id="Group_831" data-name="Group 831">
        <g id="Group_824" data-name="Group 824" transform="translate(2.249 17.216)">
          <path id="Path_899" data-name="Path 899" class="cls-3" d="M355.4,387.6a.443.443,0,1,0-.444-.444A.443.443,0,0,0,355.4,387.6Z" transform="translate(-333.272 -385.877)"/>
          <path id="Path_900" data-name="Path 900" class="cls-3" d="M313.92,387.455c.034-.03.09-.089.154-.153.065.064.123.123.155.153a.443.443,0,0,0,.627-.627c-.089-.088-.378-.379-.467-.467a.44.44,0,0,0-.314-.131.445.445,0,0,0-.314.131c-.088.088-.378.379-.469.467a.444.444,0,0,0,.628.627Z" transform="translate(-295.301 -385.439)"/>
          <path id="Path_901" data-name="Path 901" class="cls-3" d="M233.56,387.455c.031-.03.089-.089.152-.153.066.064.124.123.154.153a.445.445,0,0,0,.627,0,.439.439,0,0,0,0-.627c-.089-.088-.378-.379-.467-.467a.447.447,0,0,0-.315-.131.436.436,0,0,0-.312.131c-.09.088-.379.379-.467.467a.443.443,0,1,0,.627.627Z" transform="translate(-222.291 -385.439)"/>
          <path id="Path_902" data-name="Path 902" class="cls-3" d="M162.722,430.938h-.732a.444.444,0,0,0,0,.888h.732a.444.444,0,0,0,0-.888Z" transform="translate(-157.554 -426.057)"/>
          <path id="Path_903" data-name="Path 903" class="cls-3" d="M122.607,401.922a.446.446,0,0,0,0,.628.355.355,0,0,1-.252.6H120a.443.443,0,0,0,0,.886h.717a.894.894,0,0,1-.289.442.979.979,0,0,1-1.373-.059.944.944,0,0,1-.276-.684,1,1,0,0,1,.311-.715.444.444,0,0,0-.614-.641,1.908,1.908,0,0,0-.584,1.344,1.825,1.825,0,0,0,.534,1.321,1.9,1.9,0,0,0,1.35.572,1.868,1.868,0,0,0,1.237-.471,1.638,1.638,0,0,0,.6-1.109h.748a1.228,1.228,0,0,0,.879-.363,1.242,1.242,0,0,0,0-1.755A.441.441,0,0,0,122.607,401.922Z" transform="translate(-117.889 -399.577)"/>
          <path id="Path_904" data-name="Path 904" class="cls-3" d="M202.588,381.2l-.944-.944a1.872,1.872,0,0,0-1.748-.5.443.443,0,1,0,.2.865.986.986,0,0,1,.922.265l.123.123a.979.979,0,0,1-.531.154H199.3a.355.355,0,0,1-.354-.354.444.444,0,0,0-.888,0,.354.354,0,0,1-.708,0,.443.443,0,0,0-.886,0,.355.355,0,0,1-.709,0,.444.444,0,0,0-.888,0,.355.355,0,0,1-.344.353h-.156a.356.356,0,0,1-.345-.352v0a1.231,1.231,0,0,0-.364-.88l-.659-.658.925-.926a.443.443,0,0,0-.627-.625l-1.239,1.237a.445.445,0,0,0,0,.627l.972.972a.351.351,0,0,1,.107.251v0a.357.357,0,0,1-.357.351H191.9a.354.354,0,0,1-.311-.351.444.444,0,0,0-.887,0,.354.354,0,0,1-.709,0,.443.443,0,0,0-.887,0,.354.354,0,0,1-.709,0,.444.444,0,0,0-.888,0,.355.355,0,0,1-.354.354h-.39a2.472,2.472,0,0,0-.177-.719l-.008-.018a1.871,1.871,0,0,0-.338-.486,1.228,1.228,0,0,0-2.071.87,1.242,1.242,0,0,0,1.241,1.242h.248a1.122,1.122,0,0,1-.961.42.444.444,0,0,0-.063.886c.049,0,.1.006.145.006a2.005,2.005,0,0,0,1.856-1.245.449.449,0,0,0,.025-.066h.507a1.219,1.219,0,0,1,1.582,0,1.223,1.223,0,0,0,.8-.292,1.242,1.242,0,0,0,1.6,0,1.226,1.226,0,0,0,.8.292.454.454,0,0,0,.068-.006h.76a1.239,1.239,0,0,0,.8-.289,1.227,1.227,0,0,0,.767.294h.19a1.209,1.209,0,0,1,1.575,0,1.238,1.238,0,0,1,1.6,0,1.237,1.237,0,0,1,1.6,0h1.311a1.878,1.878,0,0,0,1.167-.4l.185.188a.444.444,0,1,0,.628-.629Zm-17.175-.042a.355.355,0,0,1-.354-.354.326.326,0,0,1,.354-.319.4.4,0,0,1,.316.216,1.469,1.469,0,0,1,.148.457Z" transform="translate(-178.11 -377.582)"/>
        </g>
        <g id="Group_825" data-name="Group 825" transform="translate(2.347 2.858)">
          <path id="Path_905" data-name="Path 905" class="cls-1" d="M119.575,221.831a.608.608,0,1,1,.608-.608A.609.609,0,0,1,119.575,221.831Zm0-1.178a.57.57,0,1,0,.57.57A.57.57,0,0,0,119.575,220.653Z" transform="translate(-118.967 -220.615)"/>
        </g>
        <g id="Group_826" data-name="Group 826" transform="translate(2.689 3.101)">
          <path id="Path_906" data-name="Path 906" class="cls-1" d="M123.041,223.282a.24.24,0,0,1,.162.051.176.176,0,0,1,.059.14.221.221,0,0,1-.03.116.155.155,0,0,1-.1.068v0a.129.129,0,0,1,.051.02.113.113,0,0,1,.032.034.157.157,0,0,1,.017.044.453.453,0,0,1,.008.051c0,.018,0,.036,0,.054a.488.488,0,0,0,.005.054.317.317,0,0,0,.012.05.121.121,0,0,0,.023.042h-.108a.06.06,0,0,1-.014-.031.334.334,0,0,1,0-.043c0-.016,0-.033,0-.051a.353.353,0,0,0-.006-.054q0-.026-.01-.05a.117.117,0,0,0-.019-.042.1.1,0,0,0-.035-.029.127.127,0,0,0-.057-.011h-.236v.311h-.1v-.728h.343Zm.02.33a.141.141,0,0,0,.054-.02.109.109,0,0,0,.037-.04.132.132,0,0,0,.014-.065.13.13,0,0,0-.031-.09.126.126,0,0,0-.1-.035H122.8v.254h.2A.368.368,0,0,0,123.061,223.612Z" transform="translate(-122.698 -223.282)"/>
        </g>
        <g id="Group_830" data-name="Group 830">
          <path id="Path_907" data-name="Path 907" class="cls-4" d="M408.627,379.37a1.84,1.84,0,0,0-2.6-2.6h0l-.539.539-.539-.539h0a1.84,1.84,0,0,0-2.6,2.6h0l3.141,3.141,3.142-3.142Z" transform="translate(-373.586 -359.138)"/>
          <g id="Group_827" data-name="Group 827" transform="translate(13.006 0)">
            <path id="Path_908" data-name="Path 908" class="cls-1" d="M241.4,205.294a5.914,5.914,0,0,1-5.908-5.908v-8.206a1.8,1.8,0,0,1,3.609,0v8.206a2.3,2.3,0,1,0,2.3-2.3,1.8,1.8,0,0,1-1.276-3.081l4.1-4.1a1.8,1.8,0,1,1,2.552,2.552l-2.051,2.051a5.906,5.906,0,0,1-3.328,10.786Z" transform="translate(-235.492 -189.376)"/>
          </g>
          <g id="Group_828" data-name="Group 828" transform="translate(25.999)">
            <path id="Path_909" data-name="Path 909" class="cls-1" d="M383.438,205.294a5.908,5.908,0,0,1-5.907-5.907V191.18a1.8,1.8,0,0,1,3.609,0v8.206a2.3,2.3,0,1,0,3.924-1.625,1.8,1.8,0,1,1,2.552-2.552,5.908,5.908,0,0,1-4.177,10.085Z" transform="translate(-377.531 -189.376)"/>
          </g>
          <g id="Group_829" data-name="Group 829" transform="translate(0 5.3)">
            <path id="Path_910" data-name="Path 910" class="cls-1" d="M103.389,247.844a1.8,1.8,0,0,0-2.552,2.552,2.3,2.3,0,1,1-3.907,1.894s-.014-.143-.015-.271l1.2,1.2v0a1.623,1.623,0,0,0,2.249-2.339l-3.034-3.035a1.623,1.623,0,0,0-2.3,0,.765.765,0,0,0-.06.069c-.015.016-.03.032-.043.049a5.907,5.907,0,1,0,8.463-.113Z" transform="translate(-93.304 -247.315)"/>
          </g>
        </g>
      </g>
    </g>
  </g>
  <g id="Group_834" data-name="Group 834" transform="translate(24.142 46.219)">
    <path id="Path_911" data-name="Path 911" class="cls-3" d="M264.094,507.812q0-.367-.013-.624c-.008-.17-.019-.313-.032-.427a2.615,2.615,0,0,0-.042-.279c-.015-.072-.029-.131-.041-.18a.948.948,0,0,1-.029-.145.445.445,0,0,1,0-.152.218.218,0,0,1,.056-.119.244.244,0,0,1,.156-.065c.14-.013.21.093.256.263.006.028.02.1.04.206s.039.236.058.384.031.3.041.468a3.129,3.129,0,0,1,0,.454,1.189,1.189,0,0,1-.054.355.2.2,0,0,1-.188.128.186.186,0,0,1-.15-.064A.34.34,0,0,1,264.094,507.812Z" transform="translate(-263.931 -505.778)"/>
    <path id="Path_912" data-name="Path 912" class="cls-3" d="M276.273,506.2a1.018,1.018,0,0,1-.027.233.729.729,0,0,1-.084.214.471.471,0,0,1-.149.157.391.391,0,0,1-.223.061.313.313,0,0,1-.148-.038.657.657,0,0,1-.12-.081.453.453,0,0,1-.176.147.277.277,0,0,1-.236-.025c0,.038.011.1.024.176s.024.169.035.265.018.2.022.3a1.8,1.8,0,0,1,.005.282.487.487,0,0,1-.057.2.149.149,0,0,1-.165.089.225.225,0,0,1-.163-.074.291.291,0,0,1-.044-.175c0-.138,0-.269-.009-.391a3.47,3.47,0,0,0-.036-.362c-.018-.118-.042-.235-.071-.352a3.41,3.41,0,0,0-.113-.358c-.017-.046-.032-.1-.049-.159a.655.655,0,0,1-.02-.192.23.23,0,0,1,.049-.14.21.21,0,0,1,.164-.057.2.2,0,0,1,.161.088,1.1,1.1,0,0,1,.1.17,1.694,1.694,0,0,0,.091.171.151.151,0,0,0,.135.076.114.114,0,0,0,.1-.037.227.227,0,0,0,.035-.092.9.9,0,0,0,.011-.12.5.5,0,0,1,.018-.119.2.2,0,0,1,.059-.091.2.2,0,0,1,.137-.038.159.159,0,0,1,.11.033.164.164,0,0,1,.05.082.45.45,0,0,1,.016.107.829.829,0,0,0,.009.107.187.187,0,0,0,.029.083.087.087,0,0,0,.079.032.056.056,0,0,0,.055-.032.21.21,0,0,0,.02-.079c0-.031,0-.065.006-.1a.291.291,0,0,1,.018-.1.186.186,0,0,1,.049-.079.15.15,0,0,1,.105-.032.174.174,0,0,1,.154.079A.3.3,0,0,1,276.273,506.2Z" transform="translate(-273.504 -505.869)"/>
    <path id="Path_913" data-name="Path 913" class="cls-3" d="M300.088,506.059a.305.305,0,0,1-.1.209.632.632,0,0,1-.249.145.969.969,0,0,1-.334.045.834.834,0,0,1-.357-.1c.017.153.032.305.048.456a3.3,3.3,0,0,1,.018.41.884.884,0,0,1-.051.311.174.174,0,0,1-.183.1.183.183,0,0,1-.149-.062.342.342,0,0,1-.052-.213c0-.214,0-.394-.015-.54s-.022-.268-.037-.368a2.027,2.027,0,0,0-.054-.253c-.021-.068-.041-.13-.062-.188a.884.884,0,0,1-.041-.136.505.505,0,0,1-.015-.157.236.236,0,0,1,.046-.128.213.213,0,0,1,.276-.045.328.328,0,0,1,.092.1c.032.056.046.1.075.144a.806.806,0,0,0,.088.1q0-.551.432-.551a.647.647,0,0,1,.177.023.51.51,0,0,1,.141.063.309.309,0,0,1,.1.093.216.216,0,0,1,.034.115.1.1,0,0,1-.034.086.151.151,0,0,1-.087.02,1.033,1.033,0,0,1-.121-.013.836.836,0,0,0-.133-.011.129.129,0,0,0-.108.049.16.16,0,0,0-.038.105.122.122,0,0,0,.047.1.176.176,0,0,0,.11.036.267.267,0,0,0,.091-.016c.03-.011.06-.023.091-.036s.061-.025.091-.036a.263.263,0,0,1,.091-.016.2.2,0,0,1,.131.041A.134.134,0,0,1,300.088,506.059Z" transform="translate(-295.296 -505.34)"/>
    <path id="Path_914" data-name="Path 914" class="cls-3" d="M319.74,508.964a.389.389,0,0,1-.272-.093.433.433,0,0,1-.326.151.409.409,0,0,1-.218-.056.5.5,0,0,1-.148-.141.592.592,0,0,1-.086-.194.867.867,0,0,1-.027-.211,1.407,1.407,0,0,1,.118-.545,2.871,2.871,0,0,1,.361-.6.247.247,0,0,1-.095-.141.238.238,0,0,1,.013-.143.275.275,0,0,1,.092-.111.239.239,0,0,1,.145-.044.265.265,0,0,1,.129.06,1.59,1.59,0,0,1,.194.168,2.97,2.97,0,0,1,.219.249,2.309,2.309,0,0,1,.206.3,1.98,1.98,0,0,1,.153.334,1.035,1.035,0,0,1,.059.34.9.9,0,0,1-.032.232.716.716,0,0,1-.094.218.546.546,0,0,1-.162.163A.411.411,0,0,1,319.74,508.964Zm.147-.711a.561.561,0,0,0-.048-.215,1.349,1.349,0,0,0-.12-.223,2.014,2.014,0,0,0-.153-.2,2.052,2.052,0,0,0-.154-.159c-.039.055-.081.119-.129.192a2.609,2.609,0,0,0-.133.227,2.153,2.153,0,0,0-.1.236.621.621,0,0,0-.044.214q0,.179.157.179a.147.147,0,0,0,.09-.027.352.352,0,0,0,.063-.061.741.741,0,0,1,.053-.061.092.092,0,0,1,.069-.027.087.087,0,0,1,.065.027l.051.057a.483.483,0,0,0,.062.058.153.153,0,0,0,.09.027C319.826,508.492,319.887,508.412,319.887,508.253Z" transform="translate(-313.657 -506.696)"/>
  </g>
</svg>
